<svg xmlns="http://www.w3.org/2000/svg" xmlns:xlink="http://www.w3.org/1999/xlink" viewBox="0 0 99.01 27.58"><defs><style>.cls-1{fill:url(#Dégradé_sans_nom_35);}.cls-2{fill:#f59b44;}</style><linearGradient id="Dégradé_sans_nom_35" x1="-0.14" y1="13.07" x2="101.07" y2="15.47" gradientUnits="userSpaceOnUse"><stop offset="0" stop-color="#f59b42"/><stop offset="0.21" stop-color="#ee736c"/><stop offset="0.39" stop-color="#cd638e"/><stop offset="0.58" stop-color="#8b6096"/><stop offset="0.75" stop-color="#4e5881"/><stop offset="1" stop-color="#2f4858"/></linearGradient></defs><title>Fichier 3</title><g id="Calque_2" data-name="Calque 2"><g id="Calque_3" data-name="Calque 3"><path class="cls-1" d="M1.54,26.59a11.78,11.78,0,0,0,3.89-1.38A31.28,31.28,0,0,0,9,22.94a54,54,0,0,0,6.28-5.62c2-2,3.81-4.17,5.65-6.32s3.63-4.36,5.6-6.48a22.12,22.12,0,0,1,3.29-3A9.25,9.25,0,0,1,31.9.37,5.84,5.84,0,0,1,34.47,0,6.54,6.54,0,0,1,36.9.8c.19.11.34.18.56.32a3.3,3.3,0,0,1,.61.52A3.45,3.45,0,0,1,38.85,3,6.55,6.55,0,0,1,39,5.65a20.69,20.69,0,0,1-.47,2.22A55.4,55.4,0,0,0,36.57,16a12.86,12.86,0,0,0,.1,3.83,5.55,5.55,0,0,0,1.34,3,2.46,2.46,0,0,0,1.13.59,4.36,4.36,0,0,0,1.53,0,11.26,11.26,0,0,0,3.42-1.3,15.49,15.49,0,0,0,1.63-1c.26-.18.52-.38.76-.57l.78-.68c1.05-.91,2.06-1.9,3.28-2.86A11.46,11.46,0,0,1,55,14.6a10.16,10.16,0,0,1,2.61-.27,8.45,8.45,0,0,1,1.36.12,9.05,9.05,0,0,1,1.34.33,16,16,0,0,1,4.27,2.36C65.83,18,66.92,19,68,19.89c2.12,1.76,4.29,3.5,6.2,3.41A15.73,15.73,0,0,0,78,22.63a13.64,13.64,0,0,1,4.7-.57c3.36.41,5.78,2.14,8.28,3.23a12.39,12.39,0,0,0,3.85,1.1,6.32,6.32,0,0,0,3.9-.73A.2.2,0,0,1,99,26a6.71,6.71,0,0,1-4.15,1.58A13.16,13.16,0,0,1,90.34,27c-2.8-.84-5.43-2.11-7.82-2.12a12.8,12.8,0,0,0-3.66.84,18.81,18.81,0,0,1-4.52,1.11,7.27,7.27,0,0,1-2.73-.3,11.88,11.88,0,0,1-2.31-1,31.59,31.59,0,0,1-3.72-2.58c-1.14-.88-2.23-1.74-3.32-2.5a11.84,11.84,0,0,0-3.18-1.71,4,4,0,0,0-.73-.17,4.29,4.29,0,0,0-.75,0,6.5,6.5,0,0,0-1.62.17,8.81,8.81,0,0,0-3.08,1.47c-1.06.72-2.19,1.62-3.35,2.48l-.89.65c-.32.24-.64.46-1,.68a20.9,20.9,0,0,1-2,1.15,14.09,14.09,0,0,1-4.58,1.49,7.6,7.6,0,0,1-2.71-.15A5.6,5.6,0,0,1,35.84,25a6.89,6.89,0,0,1-1.44-2.31,11.69,11.69,0,0,1-.62-2.37,15.54,15.54,0,0,1,0-4.67,55.68,55.68,0,0,1,2.26-8.4,8.17,8.17,0,0,0,.51-3.54,1.09,1.09,0,0,0-.23-.47A1.11,1.11,0,0,0,36.16,3L35.8,2.8a4.32,4.32,0,0,0-1.58-.57,4.78,4.78,0,0,0-3.26,1,22.11,22.11,0,0,0-3.09,2.63c-3.93,4-7.63,8.39-11.78,12.32a53.48,53.48,0,0,1-6.65,5.44A29.46,29.46,0,0,1,5.7,25.76,12,12,0,0,1,1.54,27a.19.19,0,0,1-.21-.18.19.19,0,0,1,.17-.21Z"/><ellipse class="cls-2" cx="4.28" cy="18.7" rx="4.66" ry="3.43" transform="translate(-10.16 6.07) rotate(-35.92)"/></g></g></svg>