<svg xmlns="http://www.w3.org/2000/svg" width="1440" height="900"><path d="M799,414L525,357L591,671Z" fill="#fc915d" stroke="#fc915d" stroke-width="1.51"/><path d="M591,671L815,723L799,414Z" fill="#f87f53" stroke="#f87f53" stroke-width="1.51"/><path d="M525,357L284,509L591,671Z" fill="#fc9b68" stroke="#fc9b68" stroke-width="1.51"/><path d="M1225,638L1185,360L799,414Z" fill="#f4754d" stroke="#f4754d" stroke-width="1.51"/><path d="M591,671L839,851L815,723Z" fill="#f2724a" stroke="#f2724a" stroke-width="1.51"/><path d="M467,1030L839,851L591,671Z" fill="#ef7147" stroke="#ef7147" stroke-width="1.51"/><path d="M525,357L231,257L284,509Z" fill="#feae78" stroke="#feae78" stroke-width="1.51"/><path d="M273,-4L231,257L525,357Z" fill="#fdbe87" stroke="#fdbe87" stroke-width="1.51"/><path d="M284,509L467,1030L591,671Z" fill="#f58a5e" stroke="#f58a5e" stroke-width="1.51"/><path d="M1225,638L799,414L815,723Z" fill="#f4734e" stroke="#f4734e" stroke-width="1.51"/><path d="M799,414L923,-13L525,357Z" fill="#fd9f6a" stroke="#fd9f6a" stroke-width="1.51"/><path d="M1185,360L923,-13L799,414Z" fill="#f99263" stroke="#f99263" stroke-width="1.51"/><path d="M839,851L1225,638L815,723Z" fill="#ee6545" stroke="#ee6545" stroke-width="1.51"/><path d="M923,-13L637,-109L525,357Z" fill="#feae77" stroke="#feae77" stroke-width="1.51"/><path d="M637,-109L273,-4L525,357Z" fill="#fdbd86" stroke="#fdbd86" stroke-width="1.51"/><path d="M284,509L161,1039L467,1030Z" fill="#f18659" stroke="#f18659" stroke-width="1.51"/><path d="M-9,377L-3,537L284,509Z" fill="#feaf7a" stroke="#feaf7a" stroke-width="1.51"/><path d="M-9,377L284,509L231,257Z" fill="#feb57e" stroke="#feb57e" stroke-width="1.51"/><path d="M467,1030L488,1135L839,851Z" fill="#e5683e" stroke="#e5683e" stroke-width="1.51"/><path d="M839,851L1158,1007L1225,638Z" fill="#e65338" stroke="#e65338" stroke-width="1.51"/><path d="M265,1201L488,1135L467,1030Z" fill="#df7143" stroke="#df7143" stroke-width="1.51"/><path d="M19,-93L-9,377L231,257Z" fill="#fdca94" stroke="#fdca94" stroke-width="1.51"/><path d="M-105,806L161,1039L284,509Z" fill="#f59567" stroke="#f59567" stroke-width="1.51"/><path d="M1063,1324L1158,1007L839,851Z" fill="#d9452b" stroke="#d9452b" stroke-width="1.51"/><path d="M920,-411L602,-417L637,-109Z" fill="#ffbd94" stroke="#ffbd94" stroke-width="1.51"/><path d="M1185,360L1102,-75L923,-13Z" fill="#f79669" stroke="#f79669" stroke-width="1.51"/><path d="M1185,360L1396,260L1102,-75Z" fill="#f2865a" stroke="#f2865a" stroke-width="1.51"/><path d="M1437,540L1396,260L1185,360Z" fill="#ec6b41" stroke="#ec6b41" stroke-width="1.51"/><path d="M1437,540L1185,360L1225,638Z" fill="#eb623d" stroke="#eb623d" stroke-width="1.51"/><path d="M488,1135L812,1352L839,851Z" fill="#dc5830" stroke="#dc5830" stroke-width="1.51"/><path d="M161,1039L265,1201L467,1030Z" fill="#e27749" stroke="#e27749" stroke-width="1.51"/><path d="M1488,916L1437,540L1225,638Z" fill="#e14931" stroke="#e14931" stroke-width="1.51"/><path d="M161,1039L12,1323L265,1201Z" fill="#da794b" stroke="#da794b" stroke-width="1.51"/><path d="M-3,537L-105,806L284,509Z" fill="#fba577" stroke="#fba577" stroke-width="1.51"/><path d="M-412,557L-105,806L-3,537Z" fill="#fdab85" stroke="#fdab85" stroke-width="1.51"/><path d="M-9,377L-348,418L-3,537Z" fill="#ffb98a" stroke="#ffb98a" stroke-width="1.51"/><path d="M273,-4L19,-93L231,257Z" fill="#fdcd96" stroke="#fdcd96" stroke-width="1.51"/><path d="M174,-250L19,-93L273,-4Z" fill="#fed5a4" stroke="#fed5a4" stroke-width="1.51"/><path d="M265,1201L812,1352L488,1135Z" fill="#d26439" stroke="#d26439" stroke-width="1.51"/><path d="M637,-109L174,-250L273,-4Z" fill="#fece9c" stroke="#fece9c" stroke-width="1.51"/><path d="M602,-417L174,-250L637,-109Z" fill="#ffcda2" stroke="#ffcda2" stroke-width="1.51"/><path d="M920,-411L637,-109L923,-13Z" fill="#ffb285" stroke="#ffb285" stroke-width="1.51"/><path d="M812,1352L1063,1324L839,851Z" fill="#d24828" stroke="#d24828" stroke-width="1.51"/><path d="M1158,1007L1488,916L1225,638Z" fill="#dd3e28" stroke="#dd3e28" stroke-width="1.51"/><path d="M1576,1112L1488,916L1158,1007Z" fill="#cc2616" stroke="#cc2616" stroke-width="1.51"/><path d="M1102,-75L920,-411L923,-13Z" fill="#fca880" stroke="#fca880" stroke-width="1.51"/><path d="M1149,-382L920,-411L1102,-75Z" fill="#fca887" stroke="#fca887" stroke-width="1.51"/><path d="M-324,-109L-348,418L-9,377Z" fill="#ffd0a5" stroke="#ffd0a5" stroke-width="1.51"/><path d="M19,-93L-324,-109L-9,377Z" fill="#fed6a7" stroke="#fed6a7" stroke-width="1.51"/><path d="M174,-250L-42,-246L19,-93Z" fill="#feddb1" stroke="#feddb1" stroke-width="1.51"/><path d="M602,-417L-42,-246L174,-250Z" fill="#fed9b0" stroke="#fed9b0" stroke-width="1.51"/><path d="M1532,-235L1149,-382L1102,-75Z" fill="#f69874" stroke="#f69874" stroke-width="1.51"/><path d="M-326,995L12,1323L161,1039Z" fill="#e38259" stroke="#e38259" stroke-width="1.51"/><path d="M265,1201L12,1323L812,1352Z" fill="#cc6c42" stroke="#cc6c42" stroke-width="1.51"/><path d="M-326,995L161,1039L-105,806Z" fill="#f08e66" stroke="#f08e66" stroke-width="1.51"/><path d="M1689,637L1396,260L1437,540Z" fill="#e05933" stroke="#e05933" stroke-width="1.51"/><path d="M1928,387L1565,0L1396,260Z" fill="#de7042" stroke="#de7042" stroke-width="1.51"/><path d="M1396,260L1565,0L1102,-75Z" fill="#ef8457" stroke="#ef8457" stroke-width="1.51"/><path d="M-348,418L-412,557L-3,537Z" fill="#ffb88f" stroke="#ffb88f" stroke-width="1.51"/><path d="M1488,916L1689,637L1437,540Z" fill="#d8422a" stroke="#d8422a" stroke-width="1.51"/><path d="M-412,557L-326,995L-105,806Z" fill="#f9a180" stroke="#f9a180" stroke-width="1.51"/><path d="M1488,916L1690,1025L1689,637Z" fill="#ca2917" stroke="#ca2917" stroke-width="1.51"/><path d="M1063,1324L1576,1112L1158,1007Z" fill="#c92816" stroke="#c92816" stroke-width="1.51"/><path d="M-348,418L-471,-371L-412,557Z" fill="#ffd7b2" stroke="#ffd7b2" stroke-width="1.51"/><path d="M-42,-246L-324,-109L19,-93Z" fill="#fee0b7" stroke="#fee0b7" stroke-width="1.51"/><path d="M1565,0L1532,-235L1102,-75Z" fill="#ee8b61" stroke="#ee8b61" stroke-width="1.51"/><path d="M1803,-128L1532,-235L1565,0Z" fill="#e28257" stroke="#e28257" stroke-width="1.51"/><path d="M1576,1112L1690,1025L1488,916Z" fill="#c1190d" stroke="#c1190d" stroke-width="1.51"/><path d="M1689,637L1928,387L1396,260Z" fill="#d8572f" stroke="#d8572f" stroke-width="1.51"/><path d="M1861,1165L1928,387L1689,637Z" fill="#c13621" stroke="#c13621" stroke-width="1.51"/><path d="M1928,387L1803,-128L1565,0Z" fill="#d47347" stroke="#d47347" stroke-width="1.51"/><path d="M-412,557L-453,1317L-326,995Z" fill="#f39577" stroke="#f39577" stroke-width="1.51"/><path d="M-326,995L-453,1317L12,1323Z" fill="#dc8462" stroke="#dc8462" stroke-width="1.51"/><path d="M12,1323L-453,1317L812,1352Z" fill="#c8744b" stroke="#c8744b" stroke-width="1.51"/><path d="M1690,1025L1861,1165L1689,637Z" fill="#bb1b0e" stroke="#bb1b0e" stroke-width="1.51"/><path d="M1576,1112L1861,1165L1690,1025Z" fill="#b20803" stroke="#b20803" stroke-width="1.51"/><path d="M1063,1324L1861,1165L1576,1112Z" fill="#b61108" stroke="#b61108" stroke-width="1.51"/><path d="M-42,-246L-471,-371L-324,-109Z" fill="#fee9ca" stroke="#fee9ca" stroke-width="1.51"/><path d="M-324,-109L-471,-371L-348,418Z" fill="#ffe2bc" stroke="#ffe2bc" stroke-width="1.51"/><path d="M-412,557L-471,-371L-453,1317Z" fill="#ffbd9a" stroke="#ffbd9a" stroke-width="1.51"/><path d="M602,-417L-471,-371L-42,-246Z" fill="#fee3be" stroke="#fee3be" stroke-width="1.51"/><path d="M1803,-128L1890,-222L1532,-235Z" fill="#da815c" stroke="#da815c" stroke-width="1.51"/><path d="M1532,-235L1890,-222L1149,-382Z" fill="#ea8d69" stroke="#ea8d69" stroke-width="1.51"/><path d="M1928,387L1890,-222L1803,-128Z" fill="#cb744b" stroke="#cb744b" stroke-width="1.51"/></svg>